<svg width="960" height="520" viewBox="0 0 960 520" xmlns="http://www.w3.org/2000/svg" role="img" aria-labelledby="title desc">
  <title id="title">Quantum harmonic oscillator asset-pricing simulation concept</title>
  <desc id="desc">Academic schematic linking Scotland-Korea collaboration, financial market data, a quantum harmonic oscillator model, hybrid quantum-classical optimization, and NISQ hardware constraints.</desc>
  <defs>
    <linearGradient id="panel" x1="0" y1="0" x2="1" y2="1">
      <stop offset="0" stop-color="#ffffff"/>
      <stop offset="1" stop-color="#eef8ff"/>
    </linearGradient>
    <linearGradient id="navyFade" x1="0" y1="0" x2="1" y2="0">
      <stop offset="0" stop-color="#1f4e79"/>
      <stop offset="1" stop-color="#7dbee6"/>
    </linearGradient>
    <filter id="softShadow" x="-20%" y="-20%" width="140%" height="140%">
      <feDropShadow dx="0" dy="14" stdDeviation="16" flood-color="#0f172a" flood-opacity="0.12"/>
    </filter>
  </defs>

  <rect x="0" y="0" width="960" height="520" rx="28" fill="#f6f8fb"/>
  <rect x="38" y="38" width="884" height="444" rx="26" fill="url(#panel)" stroke="#d7eaf6" stroke-width="2" filter="url(#softShadow)"/>

  <path d="M177 109 C255 65 322 72 384 130" fill="none" stroke="#7dbee6" stroke-width="2" stroke-dasharray="7 8"/>
  <path d="M578 130 C651 70 733 67 801 111" fill="none" stroke="#7dbee6" stroke-width="2" stroke-dasharray="7 8"/>
  <path d="M325 304 C422 358 544 359 642 304" fill="none" stroke="#1f4e79" stroke-width="2" stroke-dasharray="8 8" opacity="0.58"/>

  <g transform="translate(78 78)">
    <rect x="0" y="0" width="212" height="326" rx="22" fill="#ffffff" stroke="#c9e5f5" stroke-width="2"/>
    <text x="22" y="40" font-family="Inter, Arial, sans-serif" font-size="15" font-weight="800" fill="#1f4e79">Market data</text>
    <text x="22" y="63" font-family="Inter, Arial, sans-serif" font-size="11" font-weight="650" fill="#5f6b7a">returns, volatility, prices</text>

    <line x1="28" y1="236" x2="184" y2="236" stroke="#e5e7eb" stroke-width="2"/>
    <line x1="28" y1="95" x2="28" y2="236" stroke="#e5e7eb" stroke-width="2"/>
    <polyline points="31,217 53,193 73,200 93,154 115,173 136,124 158,142 181,104" fill="none" stroke="#1f4e79" stroke-width="4" stroke-linecap="round" stroke-linejoin="round"/>
    <circle cx="53" cy="193" r="4" fill="#7dbee6"/>
    <circle cx="93" cy="154" r="4" fill="#7dbee6"/>
    <circle cx="136" cy="124" r="4" fill="#7dbee6"/>
    <circle cx="181" cy="104" r="4" fill="#7dbee6"/>

    <path d="M44 282 C50 260 64 248 84 248 C112 248 116 286 144 286 C164 286 174 270 180 254" fill="none" stroke="#7dbee6" stroke-width="3" stroke-linecap="round"/>
    <text x="48" y="310" font-family="Inter, Arial, sans-serif" font-size="11" font-weight="700" fill="#5f6b7a">asset-return distribution</text>
  </g>

  <g transform="translate(338 84)">
    <rect x="0" y="0" width="284" height="326" rx="24" fill="#ffffff" stroke="#c9e5f5" stroke-width="2"/>
    <text x="30" y="40" font-family="Inter, Arial, sans-serif" font-size="15" font-weight="800" fill="#1f4e79">Quantum Harmonic Oscillator</text>
    <text x="30" y="63" font-family="Inter, Arial, sans-serif" font-size="11" font-weight="650" fill="#5f6b7a">QHO-based asset-pricing model</text>

    <path d="M43 246 C74 132 107 86 142 86 C177 86 210 132 241 246" fill="none" stroke="#d7eaf6" stroke-width="12" stroke-linecap="round"/>
    <path d="M43 246 C74 132 107 86 142 86 C177 86 210 132 241 246" fill="none" stroke="#1f4e79" stroke-width="3" stroke-linecap="round"/>
    <path d="M55 188 C78 164 101 190 123 166 C151 136 178 222 206 170 C221 145 232 151 242 165" fill="none" stroke="#0f9f7a" stroke-width="4" stroke-linecap="round"/>
    <path d="M53 213 C80 197 101 226 128 207 C154 188 178 232 208 210 C223 199 234 202 244 211" fill="none" stroke="#7dbee6" stroke-width="3" stroke-linecap="round"/>

    <line x1="48" y1="270" x2="236" y2="270" stroke="#e5e7eb" stroke-width="2"/>
    <text x="61" y="302" font-family="Inter, Arial, sans-serif" font-size="11" font-weight="750" fill="#5f6b7a">potential well + wave state</text>

    <rect x="42" y="104" width="58" height="28" rx="14" fill="#eef8ff" stroke="#7dbee6"/>
    <text x="56" y="123" font-family="Inter, Arial, sans-serif" font-size="11" font-weight="800" fill="#1f4e79">QUBO</text>
    <rect x="184" y="104" width="58" height="28" rx="14" fill="#eef8ff" stroke="#7dbee6"/>
    <text x="196" y="123" font-family="Inter, Arial, sans-serif" font-size="11" font-weight="800" fill="#1f4e79">QAOA</text>
  </g>

  <g transform="translate(672 78)">
    <rect x="0" y="0" width="210" height="326" rx="22" fill="#ffffff" stroke="#c9e5f5" stroke-width="2"/>
    <text x="23" y="40" font-family="Inter, Arial, sans-serif" font-size="15" font-weight="800" fill="#1f4e79">Hybrid workflow</text>
    <text x="23" y="63" font-family="Inter, Arial, sans-serif" font-size="11" font-weight="650" fill="#5f6b7a">VQA + NISQ hardware</text>

    <g stroke="#1f4e79" stroke-width="3" stroke-linecap="round">
      <line x1="37" y1="111" x2="176" y2="111"/>
      <line x1="37" y1="158" x2="176" y2="158"/>
      <line x1="37" y1="205" x2="176" y2="205"/>
    </g>
    <g fill="#ffffff" stroke="#7dbee6" stroke-width="3">
      <circle cx="68" cy="111" r="12"/>
      <circle cx="121" cy="111" r="12"/>
      <circle cx="96" cy="158" r="12"/>
      <circle cx="150" cy="158" r="12"/>
      <circle cx="68" cy="205" r="12"/>
      <circle cx="121" cy="205" r="12"/>
    </g>
    <g font-family="Inter, Arial, sans-serif" font-size="10" font-weight="850" fill="#1f4e79" text-anchor="middle">
      <text x="68" y="115">H</text>
      <text x="121" y="115">R</text>
      <text x="96" y="162">V</text>
      <text x="150" y="162">Q</text>
      <text x="68" y="209">M</text>
      <text x="121" y="209">A</text>
    </g>
    <path d="M50 264 C80 235 137 236 163 262" fill="none" stroke="#7dbee6" stroke-width="3" stroke-linecap="round"/>
    <path d="M163 262 L151 260 L158 250" fill="none" stroke="#7dbee6" stroke-width="3" stroke-linecap="round" stroke-linejoin="round"/>
    <text x="43" y="293" font-family="Inter, Arial, sans-serif" font-size="11" font-weight="750" fill="#5f6b7a">optimizer loop</text>
    <rect x="110" y="276" width="64" height="24" rx="12" fill="#fff8e8" stroke="#d97706"/>
    <text x="125" y="292" font-family="Inter, Arial, sans-serif" font-size="10" font-weight="850" fill="#9a5b08">NISQ</text>
  </g>

  <g transform="translate(358 430)">
    <rect x="0" y="0" width="244" height="34" rx="17" fill="#ffffff" stroke="#c9e5f5"/>
    <circle cx="22" cy="17" r="6" fill="#1f4e79"/>
    <text x="39" y="21" font-family="Inter, Arial, sans-serif" font-size="12" font-weight="800" fill="#1f4e79">Scotland</text>
    <path d="M101 17 H144" stroke="#7dbee6" stroke-width="2" stroke-dasharray="5 5"/>
    <circle cx="162" cy="17" r="6" fill="#0f9f7a"/>
    <text x="179" y="21" font-family="Inter, Arial, sans-serif" font-size="12" font-weight="800" fill="#1f4e79">Korea</text>
  </g>

  <g fill="none" stroke="url(#navyFade)" stroke-width="3" stroke-linecap="round" stroke-linejoin="round">
    <path d="M291 239 C313 239 317 239 338 239"/>
    <path d="M622 239 C646 239 650 239 672 239"/>
  </g>
  <g fill="#1f4e79">
    <path d="M333 232 L345 239 L333 246 Z"/>
    <path d="M666 232 L678 239 L666 246 Z"/>
  </g>
</svg>
